<?xml version="1.0" standalone="no"?>
<!DOCTYPE svg PUBLIC "-//W3C//DTD SVG 20010904//EN"
 "http://www.w3.org/TR/2001/REC-SVG-20010904/DTD/svg10.dtd">
<svg version="1.0" xmlns="http://www.w3.org/2000/svg"
 width="512.000000pt" height="512.000000pt" viewBox="0 0 512.000000 512.000000"
 preserveAspectRatio="xMidYMid meet">

<g transform="translate(0.000000,512.000000) scale(0.100000,-0.100000)"
fill="#000000" stroke="none">
<path d="M2517 5106 c-10 -8 -22 -29 -27 -47 -6 -21 -10 -494 -10 -1231 l0
-1198 -1220 0 -1219 0 -21 -22 c-37 -40 -21 -97 34 -118 18 -7 421 -10 1227
-10 l1199 0 0 -1193 c0 -734 4 -1205 10 -1226 23 -82 117 -82 140 0 6 21 10
492 10 1226 l0 1193 1199 0 c806 0 1209 3 1227 10 55 21 71 78 34 118 l-21 22
-1219 0 -1220 0 0 1198 c0 737 -4 1210 -10 1231 -11 39 -35 60 -70 60 -14 0
-33 -6 -43 -13z"/>
<path d="M990 4826 c-190 -44 -333 -120 -469 -250 -145 -140 -234 -301 -277
-501 -20 -93 -19 -281 1 -381 123 -600 788 -933 1340 -670 49 23 105 55 124
71 30 26 33 33 28 67 -5 37 -2 42 60 103 60 58 68 63 99 58 53 -9 77 15 138
139 172 349 127 736 -121 1040 -111 136 -298 259 -473 309 -93 27 -361 36
-450 15z m361 -440 c370 -126 477 -590 200 -867 -278 -278 -738 -170 -868 203
-30 86 -33 217 -8 305 85 294 390 456 676 359z"/>
<path d="M3120 4824 c-84 -36 -134 -116 -135 -214 0 -53 5 -73 27 -110 15 -25
155 -173 312 -330 l286 -285 -304 -305 c-302 -303 -304 -305 -316 -361 -20
-89 -1 -151 65 -215 66 -65 127 -83 214 -64 52 11 64 20 169 123 115 114 126
133 101 179 -10 18 -4 28 54 85 57 58 67 64 85 54 44 -24 65 -13 157 79 49 50
94 90 100 90 6 0 136 -126 290 -281 154 -154 300 -292 325 -307 86 -51 210
-32 282 45 56 59 75 171 43 251 -11 25 -115 136 -313 335 l-297 297 297 298
c163 163 304 312 313 331 13 25 16 52 13 106 -4 85 -33 138 -100 182 -53 36
-165 45 -219 18 -19 -9 -168 -150 -331 -313 l-298 -297 -297 297 c-199 198
-310 302 -335 313 -47 19 -142 19 -188 -1z"/>
<path d="M2234 2919 c-23 -12 -44 -49 -44 -78 0 -10 9 -30 21 -45 43 -54 129
-21 129 50 0 58 -57 97 -106 73z"/>
<path d="M2823 2920 c-27 -11 -43 -40 -43 -77 0 -68 88 -100 129 -47 34 43 21
102 -26 123 -28 13 -30 13 -60 1z"/>
<path d="M2211 2324 c-34 -44 -21 -103 28 -124 53 -21 101 16 101 77 0 68 -88
100 -129 47z"/>
<path d="M2800 2330 c-22 -22 -26 -70 -9 -101 25 -48 105 -44 128 7 16 36 14
58 -10 88 -26 33 -79 36 -109 6z"/>
<path d="M400 2181 c-109 -36 -171 -118 -171 -226 0 -29 7 -70 16 -91 11 -27
107 -130 313 -336 l297 -298 -297 -297 c-163 -164 -304 -313 -313 -332 -27
-54 -18 -166 18 -219 44 -67 97 -96 182 -100 54 -3 81 0 106 13 19 9 168 150
332 313 l297 297 298 -297 c198 -198 309 -302 334 -313 80 -32 192 -13 251 43
77 72 96 196 45 282 -15 25 -155 173 -312 330 l-286 285 304 305 c303 304 304
305 316 362 38 170 -108 316 -278 278 -57 -12 -58 -14 -357 -311 -166 -164
-305 -299 -310 -299 -6 0 -136 126 -290 281 -154 154 -299 292 -322 305 -45
27 -130 39 -173 25z"/>
<path d="M3680 2153 c-147 -39 -334 -154 -441 -271 -415 -454 -312 -1160 216
-1475 146 -87 299 -127 484 -127 273 0 499 96 687 291 133 139 210 284 250
474 20 93 19 281 -1 381 -59 284 -248 530 -510 661 -76 39 -216 83 -261 83
-32 0 -66 -22 -75 -48 -2 -6 -42 -12 -96 -13 -92 -2 -92 -2 -118 30 -30 35
-50 37 -135 14z m356 -404 c79 -14 187 -68 250 -123 226 -199 236 -552 23
-765 -211 -211 -566 -203 -760 17 -190 216 -182 522 19 722 128 128 294 181
468 149z"/>
</g>
</svg>
